<svg xmlns="http://www.w3.org/2000/svg" viewBox="0 0 1224 792"><path d="M992.6 438.7c0 .1-.1 0 0 0-.1 0-.1 0 0 0-.1 0-.1 0 0 0zm-567.8 4c-10.4-23.7-.4-43.8-.4-43.8 3.8-8.8 10.9-12.2 19.2-12.2 11.9 0 21.5 8.9 21.5 27.6v9.1c0 21.7-9.6 31.7-21.5 31.7-8.1 0-15.1-4.8-18.8-12.4zm329.8-9.1c-1.5-3.8-1.9-9.1-2.2-11.3-.1-.7-2.5-19.1 12.2-33 7.7-7.1 18.3-8.5 23.8-3.2 5.4 5.3 3.4 17.3-4.1 25-6.8 7.6-20.2 17.4-29.7 22.5zm292.9 9.3c-10.4-23.7-.4-43.8-.4-43.8 3.8-8.8 10.9-12.2 19.2-12.2 11.9 0 21.5 8.9 21.5 27.6v9.1c0 21.7-9.6 31.7-21.5 31.7-8.1 0-15.1-4.8-18.8-12.4zM656 391.7c-2.6 6.4-8 17.8-17.4 29.2-8.3 10-17.9 18-28.8 23.7-6.1 3.2-12.6 5.7-19.4 7.5 6.8-7.7 9.5-18.4 7.6-30.5-2.5-15.5-15.9-28.5-24.2-35.3-4.5-3.5-4.4-8.2-4.4-8.2v-5c0-4.1-3.3-7.4-7.5-7.4-4.1 0-7.4 3.3-7.4 7.4v9.7s.2 4.7-1.6 8.8c-2.6 6.7-7.6 18.3-14.2 29.7-9 15.6-23.1 34.1-39 34.1 0 0-15.4-.3-19.9-14.7v-63.2c0-4.1-3.3-7.4-7.5-7.4-4.1 0-7.4 3.3-7.4 7.4v7.8c-8.2-6.2-14-7.1-20.7-7.1-11.4 0-22 4.4-29 12.3 0 0-6.8 7.9-9.9 18.7-1.9 5.2-4.8 12.5-9.4 19.5-9.1 13.8-16.8 26.3-33.5 26.3 0 0-27.6 2.1-27.6-42.7v-.2l-.3-89.1v-11c0-5.9-.7-12.6-3.3-16.3-2.7-3.8-6.5-6.7-12-7.1-4.3-.3-13.6.8-19.6 7.6-4.4 5-8.6 11-12 19.8 0 0-47.5 116.9-48.6 118.5-.4.8-1.1 1.4-2.1 1-1.1-.5-1-2.3-.9-3.3 0-4.9 10.6-129.2 10.6-129.2.2-2.5 2.1-25.1-7.6-35.1-5.9-6-12.3-6.5-16.8-6.5-22.9 0-36.2 31.3-45.6 60.4C159 376.2 124.1 451.6 86.1 481c-4.5 3.5-6.4 8.4-3.6 12.3 3.2 4.3 8.5 2.9 13-.6 17.4-14 35.8-41.1 54.6-80.7 15.5-32.6 28.3-67.6 34.5-87.6 11.4-36.7 22.6-53.1 36.2-53.1 2.2 0 3.9.8 5.4 2.4 5.9 6.4 5.9 22.9 5.4 28.7l-9.7 114.9v.1c0 .4 0 .8-.1 1.2-.6 10.6-.5 21.2 4.5 26.5 1.9 2 4.4 3.2 7.2 3.1 9.2-.3 13.1-7.9 14.9-12.6l46.9-116.4v-.1c5.8-15 13.2-20.3 17.8-20.3 4.7 0 6.4 5.9 6.4 11V321l.3 85.7v.2c0 19.9 2.6 34.4 16.5 47.6 10.5 9.9 22.9 9.5 24.6 9.4 19.5 0 29.5-10.6 42.1-30.6 1.5-2.4 2.9-4.9 4.1-7.2.6 14.5 7.3 24 7.3 24 6.6 8.4 16.7 13.9 28.1 13.9 10 0 19-4.2 25.5-10.9 17 12.2 31.7 11 31.7 11 16 0 31.6-13 46.3-38.4 8.3-14.3 13.9-28.4 16-34.3 7 4.8 19.1 18.2 21.3 32.1 1.4 8.9-.5 19.4-5.4 24.6-5.8 6.1-10.6 7.5-23.4 7.5-2.3 0-4.3 1.9-4.3 4.2 0 2.3 1.9 4.2 4.3 4.2 1.8.1 3 0 5.3 0 1.2 0 2.3 0 3.4-.1 14.5-1.1 35.7-3.9 50.4-11.7 11.8-6.2 22.4-14.9 31.4-25.7 12.3-14.8 18.1-29.5 20.1-35.1h.1c7 4.8 19.1 18.2 21.3 32.1 1.4 8.9-.5 19.4-5.4 24.6-5.8 6.1-10.6 7.5-23.4 7.5-2.3 0-4.3 1.9-4.3 4.2 0 2.3 1.9 4.2 4.3 4.2 1.8.1 3 0 5.3 0 1.8 0 1.9 0 5.1-.2 8.9-.3 48.7-2.8 76.9-15.5 11.5 16.7 37.2 15.8 37.2 15.8 15.4.2 29.3-3.5 42.5-12.2 8.5-5.6 16.6-14.2 23.4-25 11.6-18.3 13.6-37.7 13.6-37.9 1.1.1 2.2.1 3.4.1 2.8 0 6.1-.2 9.8-.9 0 .2-3.3 13.6-4.7 23.2-2.9 19.7-.6 32.8 5.5 41.2 6.1 8.3 13.3 11.3 21.1 11.4 1.4.1 7.3.3 14.6-3.2 12.9-6.1 19.9-19.2 23.5-28.8l12-32.2c2.2-5.8 4.6-12.7 9.3-12.7 1.7 0 4 1.1 4 9 0 0 .7 35.3 2.3 46.2 1.1 7.1 3.5 12.2 7.1 16 3.4 3.6 9.6 5.7 14.7 5.7 17.6 0 30.4-13.1 41.2-30.4 1.5-2.4 2.9-4.9 4.1-7.2.6 14.5 7.3 24 7.3 24 6.6 8.4 16.7 13.9 28.1 13.9 10 0 19-4.2 25.5-10.9 17 12.2 31.7 11 31.7 11 11.4 0 22.7-6.7 33.5-19.8.6-.7.9-1.6.9-2.7 0-2.3-1.9-4.2-4.2-4.2-1.2 0-2.3.5-3.1 1.4-7.8 9.4-17.1 16.9-27.2 16.9 0 0-15.4-.3-19.9-14.7v-63.2c0-4.1-3.3-7.4-7.5-7.4s-7.4 3.3-7.4 7.4v7.8c-8.2-6.2-14-7.1-20.7-7.1-11.4 0-22.1 4.3-29 12.3 0 0-6.8 7.9-9.9 18.7-1.9 5.2-5 12.4-9.4 19.5-7.8 12.3-15.1 21.1-24.8 25-4.5 1.9-9.4 1.7-13-1-2-1.5-3.3-3.4-3.8-5.8-1.8-6.2-2.1-14-2.1-14.1l-.5-37.1v-.1c0-10.9-7.3-17.5-16.8-17.5-7.7 0-13.8 6.1-18.3 18.2l-12 32.2c-10.2 27.6-28.9 26.2-29.6 26.2-3.6 0-7.5-1.4-10.1-4.9-4.7-6.4-5.5-19.2-3.1-36.4 1.5-10 3.8-18.9 4.9-22.9.4-1.6.8-2.6.9-4.3.2-4.9-3-9.2-9.3-8.6-.8.1-1.4.2-2.3.4-7.5 2-11.7 2.1-16 1.8v-7.2c0-4.1-2-7.4-6.1-7.4s-6.4 3.3-6.4 7.4v7.4s.1 3.2-.6 7c-2 12-8.1 44.1-35.1 59.1 0 0-13.3 9.1-32.6 8.3-5.9-.2-17.2-2.7-23.6-13.6 17.2-9.3 30.6-21.9 35.4-28.5 2.9-3.9 4.5-6.9 5.9-11.5 2-6.1.9-14.6-3-19-8.6-9.8-24.7-9-37-.3-18.6 12.7-22.2 34.5-21.7 42.2 0 .3.3 10.4 3.1 16.5-14.6 6.9-33.4 11.3-49.3 13.3l1.2-1.2c7.3-7.7 10.2-18.8 8.3-31.2-2.5-15.5-15.9-28.5-24.2-35.3-4.5-3.5-4.4-8.2-4.4-8.2v-5c0-4.1-3.3-7.4-7.5-7.4-4.1 0-7.4 3.3-7.4 7.4v9.7c.3-.1.3 4.2-1.4 8.8z"/><path d="M968.5 350.3c1.3-5 1.7-10.9 1.9-15.4 0-5.3-4.2-9.5-9.5-9.5s-9.5 4.3-9.5 9.5c.2 4.5.7 10.4 2 15.4.8 3 3.9 5.3 7.5 5.2 3.7.1 6.8-2.2 7.6-5.2z"/></svg>