<?xml version="1.0" encoding="utf-8"?>
<!-- Generator: Adobe Illustrator 21.0.2, SVG Export Plug-In . SVG Version: 6.00 Build 0)  -->
<svg version="1.1" id="Layer_1" xmlns="http://www.w3.org/2000/svg" xmlns:xlink="http://www.w3.org/1999/xlink" x="0px" y="0px"
	 viewBox="0 0 1224 792" style="enable-background:new 0 0 1224 792;" xml:space="preserve">
<style type="text/css">
	.st0{fill:#FFFFFF;}
</style>
<g>
	<path class="st0" d="M992.6,438.7C992.6,438.8,992.5,438.7,992.6,438.7C992.5,438.7,992.5,438.7,992.6,438.7
		C992.5,438.7,992.5,438.7,992.6,438.7C992.6,438.7,992.6,438.7,992.6,438.7z M424.8,442.7c-10.4-23.7-0.4-43.8-0.4-43.8
		c3.8-8.8,10.9-12.2,19.2-12.2c11.9,0,21.5,8.9,21.5,27.6v9.1c0,21.7-9.6,31.7-21.5,31.7C435.5,455.1,428.5,450.3,424.8,442.7z
		 M754.6,433.6c-1.5-3.8-1.9-9.1-2.2-11.3c-0.1-0.7-2.5-19.1,12.2-33c7.7-7.1,18.3-8.5,23.8-3.2c5.4,5.3,3.4,17.3-4.1,25
		C777.5,418.7,764.1,428.5,754.6,433.6z M1047.5,442.9c-10.4-23.7-0.4-43.8-0.4-43.8c3.8-8.8,10.9-12.2,19.2-12.2
		c11.9,0,21.5,8.9,21.5,27.6v9.1c0,21.7-9.6,31.7-21.5,31.7C1058.2,455.3,1051.2,450.5,1047.5,442.9z M656,391.7
		c-2.6,6.4-8,17.8-17.4,29.2c-8.3,10-17.9,18-28.8,23.7c-6.1,3.2-12.6,5.7-19.4,7.5c6.8-7.7,9.5-18.4,7.6-30.5
		c-2.5-15.5-15.9-28.5-24.2-35.3c-4.5-3.5-4.4-8.2-4.4-8.2l0-5c0-4.1-3.3-7.4-7.5-7.4c-4.1,0-7.4,3.3-7.4,7.4l0,9.7
		c0,0,0.2,4.7-1.6,8.8c-2.6,6.7-7.6,18.3-14.2,29.7c-9,15.6-23.1,34.1-39,34.1c0,0-15.4-0.3-19.9-14.7l0-63.2c0-4.1-3.3-7.4-7.5-7.4
		c-4.1,0-7.4,3.3-7.4,7.4l0,7.8c-8.2-6.2-14-7.1-20.7-7.1c-11.4,0-22,4.4-29,12.3c0,0-6.8,7.9-9.9,18.7c-1.9,5.2-4.8,12.5-9.4,19.5
		c-9.1,13.8-16.8,26.3-33.5,26.3c0,0-27.6,2.1-27.6-42.7c0-0.1,0-0.2,0-0.2l-0.3-89.1V312c0-5.9-0.7-12.6-3.3-16.3
		c-2.7-3.8-6.5-6.7-12-7.1c-4.3-0.3-13.6,0.8-19.6,7.6c-4.4,5-8.6,11-12,19.8c0,0-47.5,116.9-48.6,118.5c-0.4,0.8-1.1,1.4-2.1,1
		c-1.1-0.5-1-2.3-0.9-3.3c0-4.9,10.6-129.2,10.6-129.2c0.2-2.5,2.1-25.1-7.6-35.1c-5.9-6-12.3-6.5-16.8-6.5
		c-22.9,0-36.2,31.3-45.6,60.4c-17.6,54.4-52.5,129.8-90.5,159.2c-4.5,3.5-6.4,8.4-3.6,12.3c3.2,4.3,8.5,2.9,13-0.6
		c17.4-14,35.8-41.1,54.6-80.7c15.5-32.6,28.3-67.6,34.5-87.6c11.4-36.7,22.6-53.1,36.2-53.1c2.2,0,3.9,0.8,5.4,2.4
		c5.9,6.4,5.9,22.9,5.4,28.7l-9.7,114.9c0,0,0,0.1,0,0.1c0,0.4,0,0.8-0.1,1.2c-0.6,10.6-0.5,21.2,4.5,26.5c1.9,2,4.4,3.2,7.2,3.1
		c9.2-0.3,13.1-7.9,14.9-12.6l46.9-116.4c0,0,0,0,0-0.1c5.8-15,13.2-20.3,17.8-20.3c4.7,0,6.4,5.9,6.4,11v11.2l0.3,85.7
		c0,0.1,0,0.1,0,0.2c0,19.9,2.6,34.4,16.5,47.6c10.5,9.9,22.9,9.5,24.6,9.4c19.5,0,29.5-10.6,42.1-30.6c1.5-2.4,2.9-4.9,4.1-7.2
		c0.6,14.5,7.3,24,7.3,24c6.6,8.4,16.7,13.9,28.1,13.9c10,0,19-4.2,25.5-10.9c17,12.2,31.7,11,31.7,11c16,0,31.6-13,46.3-38.4
		c8.3-14.3,13.9-28.4,16-34.3c7,4.8,19.1,18.2,21.3,32.1c1.4,8.9-0.5,19.4-5.4,24.6c-5.8,6.1-10.6,7.5-23.4,7.5
		c-2.3,0-4.3,1.9-4.3,4.2c0,2.3,1.9,4.2,4.3,4.2c1.8,0.1,3,0,5.3,0c1.2,0,2.3,0,3.4-0.1c14.5-1.1,35.7-3.9,50.4-11.7
		c11.8-6.2,22.4-14.9,31.4-25.7c12.3-14.8,18.1-29.5,20.1-35.1l0.1,0c7,4.8,19.1,18.2,21.3,32.1c1.4,8.9-0.5,19.4-5.4,24.6
		c-5.8,6.1-10.6,7.5-23.4,7.5c-2.3,0-4.3,1.9-4.3,4.2c0,2.3,1.9,4.2,4.3,4.2c1.8,0.1,3,0,5.3,0c1.8,0,1.9,0,5.1-0.2
		c8.9-0.3,48.7-2.8,76.9-15.5c11.5,16.7,37.2,15.8,37.2,15.8c15.4,0.2,29.3-3.5,42.5-12.2c8.5-5.6,16.6-14.2,23.4-25
		c11.6-18.3,13.6-37.7,13.6-37.9c1.1,0.1,2.2,0.1,3.4,0.1c2.8,0,6.1-0.2,9.8-0.9c0,0.2-3.3,13.6-4.7,23.2
		c-2.9,19.7-0.6,32.8,5.5,41.2c6.1,8.3,13.3,11.3,21.1,11.4c1.4,0.1,7.3,0.3,14.6-3.2c12.9-6.1,19.9-19.2,23.5-28.8l12-32.2
		c2.2-5.8,4.6-12.7,9.3-12.7c1.7,0,4,1.1,4,9c0,0,0.7,35.3,2.3,46.2c1.1,7.1,3.5,12.2,7.1,16c3.4,3.6,9.6,5.7,14.7,5.7
		c17.6,0,30.4-13.1,41.2-30.4c1.5-2.4,2.9-4.9,4.1-7.2c0.6,14.5,7.3,24,7.3,24c6.6,8.4,16.7,13.9,28.1,13.9c10,0,19-4.2,25.5-10.9
		c17,12.2,31.7,11,31.7,11c11.4,0,22.7-6.7,33.5-19.8c0.6-0.7,0.9-1.6,0.9-2.7c0-2.3-1.9-4.2-4.2-4.2c-1.2,0-2.3,0.5-3.1,1.4
		c-7.8,9.4-17.1,16.9-27.2,16.9c0,0-15.4-0.3-19.9-14.7l0-63.2c0-4.1-3.3-7.4-7.5-7.4s-7.4,3.3-7.4,7.4l0,7.8
		c-8.2-6.2-14-7.1-20.7-7.1c-11.4,0-22.1,4.3-29,12.3c0,0-6.8,7.9-9.9,18.7c-1.9,5.2-5,12.4-9.4,19.5c-7.8,12.3-15.1,21.1-24.8,25
		c-4.5,1.9-9.4,1.7-13-1c-2-1.5-3.3-3.4-3.8-5.8c-1.8-6.2-2.1-14-2.1-14.1l-0.5-37.1c0,0,0,0,0-0.1c0-10.9-7.3-17.5-16.8-17.5
		c-7.7,0-13.8,6.1-18.3,18.2l-12,32.2c-10.2,27.6-28.9,26.2-29.6,26.2c-3.6,0-7.5-1.4-10.1-4.9c-4.7-6.4-5.5-19.2-3.1-36.4
		c1.5-10,3.8-18.9,4.9-22.9c0.4-1.6,0.8-2.6,0.9-4.3c0.2-4.9-3-9.2-9.3-8.6c-0.8,0.1-1.4,0.2-2.3,0.4c-7.5,2-11.7,2.1-16,1.8l0-7.2
		c0-4.1-2-7.4-6.1-7.4c-4.1,0-6.4,3.3-6.4,7.4l0,7.4c0,0,0.1,3.2-0.6,7c-2,12-8.1,44.1-35.1,59.1c0,0-13.3,9.1-32.6,8.3
		c-5.9-0.2-17.2-2.7-23.6-13.6c17.2-9.3,30.6-21.9,35.4-28.5c2.9-3.9,4.5-6.9,5.9-11.5c2-6.1,0.9-14.6-3-19c-8.6-9.8-24.7-9-37-0.3
		c-18.6,12.7-22.2,34.5-21.7,42.2c0,0.3,0.3,10.4,3.1,16.5c-14.6,6.9-33.4,11.3-49.3,13.3c0.4-0.4,0.8-0.8,1.2-1.2
		c7.3-7.7,10.2-18.8,8.3-31.2c-2.5-15.5-15.9-28.5-24.2-35.3c-4.5-3.5-4.4-8.2-4.4-8.2l0-5c0-4.1-3.3-7.4-7.5-7.4
		c-4.1,0-7.4,3.3-7.4,7.4l0,9.7C657.7,382.8,657.7,387.1,656,391.7z"/>
	<path class="st0" d="M968.5,350.3c1.3-5,1.7-10.9,1.9-15.4c0-5.3-4.2-9.5-9.5-9.5c-5.3,0-9.5,4.3-9.5,9.5c0.2,4.5,0.7,10.4,2,15.4
		c0.8,3,3.9,5.3,7.5,5.2C964.6,355.6,967.7,353.3,968.5,350.3z"/>
</g>
</svg>
