<svg xmlns="http://www.w3.org/2000/svg" viewBox="0 0 32 40.00000125"><g fill="#e9e6d8"><path d="M22.418 3.071c.262 0 .501.15.615.387a.684.684 0 0 1 .926.64.671.671 0 0 1-.281.54c.448.366.74.918.74 1.543v.25l1.25.812-1.25.563v3.875a7.5 7.5 0 0 1-6.758 7.462v4.16h-1V19.16c-3.83-.256-7.044-3.191-7.226-7.201-.017-.365-.016-.75-.016-1.123 0-.282-.218-.5-.5-.5h-1c-.676.01-.676-1.01 0-1h1c.822 0 1.5.677 1.5 1.5v.846h1v-.846c0-1.387-1.114-2.5-2.5-2.5h-1c-.676.01-.676-1.01 0-1h1c1.927 0 3.5 1.573 3.5 3.5v.846h.99v-.846c0-2.491-2.009-4.5-4.5-4.5h-.99c-.676.01-.676-1.01 0-1h.99c3.031 0 5.5 2.468 5.5 5.5v.846h1.01v-.846c0-3.596-2.905-6.5-6.5-6.5h-.99c-.676.01-.676-1.01 0-1h.99c4.136 0 7.5 3.364 7.5 7.5v.846h2a2 2 0 0 0 2-2v-3.5c0-.626.292-1.177.742-1.543a.672.672 0 0 1-.283-.54.686.686 0 0 1 .925-.64.684.684 0 0 1 .616-.387zm.166 3.11a.5.5 0 1 0 .002 0zm-2.407 7.654h-6.425a3.213 3.213 0 1 0 6.425 0zM17.66 26.054v2.875h-1v-2.875z"/><path style="line-height:normal;text-indent:0;text-align:start;text-decoration-line:none;text-decoration-style:solid;text-decoration-color:#e9e6d8;text-transform:none;isolation:auto;mix-blend-mode:normal" d="M23.16 22.93l6 1.75-6 1.75.537-1.251H10.5l-1.105 1.105H2.84l1.605-1.605-.92-.92-.685-.686h6.555L10.5 24.18h13.195zm-14.098.946h-.671l.802.803-.802.802h.671l.803-.802zm-1.806 0h-.672l.803.803-.803.802h.672l.803-.802zm-1.807 0h-.672l.803.803-.803.802h.672l.803-.802z" color="#e9e6d8" font-weight="400" font-family="sans-serif" white-space="normal" overflow="visible" solid-color="#e9e6d8" fill-rule="evenodd"/></g><text y="47" fill="#e9e6d8" font-size="5" font-weight="bold" font-family="'Helvetica Neue', Helvetica, Arial-Unicode, Arial, Sans-serif">Created by anbileru adaleru</text><text y="52" fill="#e9e6d8" font-size="5" font-weight="bold" font-family="'Helvetica Neue', Helvetica, Arial-Unicode, Arial, Sans-serif">from the Noun Project</text></svg>